<?xml version="1.0" encoding="UTF-8" standalone="no"?><!DOCTYPE svg PUBLIC "-//W3C//DTD SVG 1.1//EN" "http://www.w3.org/Graphics/SVG/1.1/DTD/svg11.dtd"><svg width="100%" height="100%" viewBox="0 0 42 30" version="1.1" xmlns="http://www.w3.org/2000/svg" xmlns:xlink="http://www.w3.org/1999/xlink" xml:space="preserve" xmlns:serif="http://www.serif.com/" style="fill-rule:evenodd;clip-rule:evenodd;stroke-linejoin:round;stroke-miterlimit:2;"><rect id="Artboard2" x="0" y="0" width="41.667" height="29.167" style="fill:none;"/><g><g><rect x="25.001" y="12.5" width="4.167" height="4.167" style="fill:#a56a50;"/><rect x="25.001" y="16.668" width="4.167" height="4.167" style="fill:#a56a50;"/><rect x="12.501" y="12.5" width="4.167" height="4.167" style="fill:#a56a50;"/><rect x="12.501" y="20.835" width="4.167" height="4.167" style="fill:#a56a50;"/><rect x="12.501" y="25" width="4.167" height="4.167" style="fill:#a56a50;"/><rect x="12.501" y="16.668" width="4.167" height="4.167" style="fill:#a56a50;"/><rect x="20.834" y="12.5" width="4.167" height="4.167" style="fill:#a56a50;"/><rect x="20.834" y="16.668" width="4.167" height="4.167" style="fill:#a56a50;"/><rect x="33.334" y="4.168" width="4.167" height="4.167" style="fill:#a56a50;"/><rect x="33.334" y="8.333" width="4.167" height="4.167" style="fill:#a56a50;"/><rect x="33.334" y="25" width="4.167" height="4.167" style="fill:#a56a50;"/><rect x="16.668" y="12.5" width="4.167" height="4.167" style="fill:#a56a50;"/><rect x="16.668" y="25" width="4.167" height="4.167" style="fill:#a56a50;"/><rect x="16.668" y="16.668" width="4.167" height="4.167" style="fill:#a56a50;"/><rect x="29.167" y="12.5" width="4.167" height="4.167" style="fill:#a56a50;"/><rect x="4.168" y="4.167" width="4.167" height="4.167" style="fill:#a56a50;"/><rect x="0.002" y="-0" width="4.167" height="4.167" style="fill:#a56a50;"/><rect x="29.167" y="20.835" width="4.167" height="4.167" style="fill:#a56a50;"/><rect x="29.167" y="8.333" width="4.167" height="4.167" style="fill:#a56a50;"/><rect x="29.167" y="25" width="4.167" height="4.167" style="fill:#a56a50;"/><rect x="29.167" y="0.001" width="4.167" height="4.167" style="fill:#a56a50;"/><rect x="29.167" y="16.668" width="4.167" height="4.167" style="fill:#a56a50;"/><rect x="8.335" y="8.333" width="4.167" height="4.167" style="fill:#a56a50;"/></g><g><rect x="37.5" y="8.334" width="4.167" height="4.167" style="fill:#0b0d10;"/><rect x="29.167" y="4.168" width="4.167" height="4.167" style="fill:#0d1320;"/></g><g><rect x="8.335" y="12.5" width="4.167" height="4.167" style="fill:#e6d4cc;"/><rect x="0.002" y="4.168" width="4.167" height="4.167" style="fill:#e6d4cc;"/><rect x="4.168" y="8.334" width="4.167" height="4.167" style="fill:#e6d4cc;"/></g></g></svg>