<?xml version="1.0" encoding="UTF-8" standalone="no"?><!DOCTYPE svg PUBLIC "-//W3C//DTD SVG 1.1//EN" "http://www.w3.org/Graphics/SVG/1.1/DTD/svg11.dtd"><svg width="100%" height="100%" viewBox="0 0 71 42" version="1.1" xmlns="http://www.w3.org/2000/svg" xmlns:xlink="http://www.w3.org/1999/xlink" xml:space="preserve" xmlns:serif="http://www.serif.com/" style="fill-rule:evenodd;clip-rule:evenodd;stroke-linejoin:round;stroke-miterlimit:2;"><rect id="Artboard1" x="0" y="0" width="70.833" height="41.667" style="fill:none;"/><clipPath id="_clip1"><rect id="Artboard11" serif:id="Artboard1" x="0" y="0" width="70.833" height="41.667"/></clipPath><g clip-path="url(#_clip1)"><g><g><rect x="66.666" y="4.167" width="4.167" height="4.167" style="fill:#e88255;"/><rect x="66.666" y="16.667" width="4.167" height="4.167" style="fill:#e88255;"/><rect x="66.666" y="12.501" width="4.167" height="4.167" style="fill:#e88255;"/><rect x="66.666" y="8.334" width="4.167" height="4.167" style="fill:#e88255;"/><rect x="33.331" y="24.999" width="4.167" height="4.167" style="fill:#e88255;"/><rect x="33.331" y="33.333" width="4.167" height="4.167" style="fill:#e88255;"/><rect x="33.331" y="29.166" width="4.167" height="4.167" style="fill:#e88255;"/><rect x="33.331" y="20.834" width="4.167" height="4.167" style="fill:#e88255;"/><rect x="33.331" y="37.5" width="4.167" height="4.167" style="fill:#e88255;"/><rect x="49.999" y="4.167" width="4.167" height="4.167" style="fill:#e88255;"/><rect x="49.999" y="24.999" width="4.167" height="4.167" style="fill:#e88255;"/><rect x="49.999" y="16.667" width="4.167" height="4.167" style="fill:#e88255;"/><rect x="49.999" y="12.501" width="4.167" height="4.167" style="fill:#e88255;"/><rect x="49.999" y="33.333" width="4.167" height="4.167" style="fill:#e88255;"/><rect x="49.999" y="8.334" width="4.167" height="4.167" style="fill:#e88255;"/><rect x="49.999" y="29.166" width="4.167" height="4.167" style="fill:#e88255;"/><rect x="49.999" y="37.5" width="4.167" height="4.167" style="fill:#e88255;"/><rect x="16.663" y="16.667" width="4.167" height="4.167" style="fill:#e88255;"/><rect x="58.333" y="12.501" width="4.167" height="4.167" style="fill:#e88255;"/><rect x="58.333" y="8.334" width="4.167" height="4.167" style="fill:#e88255;"/><rect x="58.333" y="20.834" width="4.167" height="4.167" style="fill:#e88255;"/><rect x="24.997" y="24.999" width="4.167" height="4.167" style="fill:#e88255;"/><rect x="24.997" y="16.667" width="4.167" height="4.167" style="fill:#e88255;"/><rect x="24.997" y="33.333" width="4.167" height="4.167" style="fill:#e88255;"/><rect x="24.997" y="29.166" width="4.167" height="4.167" style="fill:#e88255;"/><rect x="24.997" y="20.834" width="4.167" height="4.167" style="fill:#e88255;"/><rect x="24.997" y="37.5" width="4.167" height="4.167" style="fill:#e88255;"/><rect x="41.665" y="33.333" width="4.167" height="4.167" style="fill:#e88255;"/><rect x="41.665" y="29.166" width="4.167" height="4.167" style="fill:#e88255;"/><rect x="41.665" y="20.834" width="4.167" height="4.167" style="fill:#e88255;"/><rect x="8.329" y="12.501" width="4.167" height="4.167" style="fill:#e88255;"/><rect x="8.329" y="8.334" width="4.167" height="4.167" style="fill:#e88255;"/><rect x="62.499" y="16.667" width="4.167" height="4.167" style="fill:#e88255;"/><rect x="62.499" y="8.334" width="4.167" height="4.167" style="fill:#e88255;"/><rect x="62.499" y="20.834" width="4.167" height="4.167" style="fill:#e88255;"/><rect x="29.164" y="24.999" width="4.167" height="4.167" style="fill:#e88255;"/><rect x="29.164" y="16.667" width="4.167" height="4.167" style="fill:#e88255;"/><rect x="29.164" y="33.333" width="4.167" height="4.167" style="fill:#e88255;"/><rect x="29.164" y="29.166" width="4.167" height="4.167" style="fill:#e88255;"/><rect x="29.164" y="20.834" width="4.167" height="4.167" style="fill:#e88255;"/><rect x="45.832" y="33.333" width="4.167" height="4.167" style="fill:#e88255;"/><rect x="45.832" y="29.166" width="4.167" height="4.167" style="fill:#e88255;"/><rect x="12.496" y="12.501" width="4.167" height="4.167" style="fill:#e88255;"/><rect x="54.166" y="24.999" width="4.167" height="4.167" style="fill:#e88255;"/><rect x="54.166" y="16.667" width="4.167" height="4.167" style="fill:#e88255;"/><rect x="54.166" y="8.334" width="4.167" height="4.167" style="fill:#e88255;"/><rect x="54.166" y="20.834" width="4.167" height="4.167" style="fill:#e88255;"/><rect x="54.166" y="37.5" width="4.167" height="4.167" style="fill:#e88255;"/><rect x="20.83" y="16.667" width="4.167" height="4.167" style="fill:#e88255;"/><rect x="37.498" y="24.999" width="4.167" height="4.167" style="fill:#e88255;"/><rect x="37.498" y="33.333" width="4.167" height="4.167" style="fill:#e88255;"/><rect x="37.498" y="20.834" width="4.167" height="4.167" style="fill:#e88255;"/><rect x="37.498" y="37.5" width="4.167" height="4.167" style="fill:#e88255;"/><rect x="4.162" y="4.167" width="4.167" height="4.167" style="fill:#e88255;"/><rect x="-0.005" y="4.167" width="4.167" height="4.167" style="fill:#e88255;"/><rect x="4.162" y="8.334" width="4.167" height="4.167" style="fill:#e88255;"/><rect x="-0.005" y="-0" width="4.167" height="4.167" style="fill:#e88255;"/></g><g><rect x="49.999" y="20.834" width="4.167" height="4.167" style="fill:#de7140;"/><rect x="41.665" y="24.999" width="4.167" height="4.167" style="fill:#de7140;"/><rect x="41.665" y="12.501" width="4.167" height="4.167" style="fill:#de7140;"/><rect x="45.832" y="24.999" width="4.167" height="4.167" style="fill:#de7140;"/><rect x="45.832" y="16.667" width="4.167" height="4.167" style="fill:#de7140;"/><rect x="45.832" y="12.501" width="4.167" height="4.167" style="fill:#de7140;"/><rect x="45.832" y="20.834" width="4.167" height="4.167" style="fill:#de7140;"/><rect x="37.498" y="29.166" width="4.167" height="4.167" style="fill:#de7140;"/></g><g><rect x="16.663" y="12.501" width="4.167" height="4.167" style="fill:#b16645;"/><rect x="16.663" y="8.334" width="4.167" height="4.167" style="fill:#b16645;"/><rect x="8.329" y="4.167" width="4.167" height="4.167" style="fill:#b16645;"/><rect x="12.496" y="4.167" width="4.167" height="4.167" style="fill:#b16645;"/><rect x="12.496" y="8.334" width="4.167" height="4.167" style="fill:#b16645;"/><rect x="20.83" y="12.501" width="4.167" height="4.167" style="fill:#b16645;"/><rect x="4.162" y="-0" width="4.167" height="4.167" style="fill:#b16645;"/></g><g><rect x="58.333" y="24.999" width="4.167" height="4.167" style="fill:#f1a888;"/><rect x="58.333" y="29.166" width="4.167" height="4.167" style="fill:#f1a888;"/><rect x="54.166" y="33.333" width="4.167" height="4.167" style="fill:#f1a888;"/><rect x="54.166" y="29.166" width="4.167" height="4.167" style="fill:#f1a888;"/><rect x="16.663" y="20.834" width="4.167" height="4.167" style="fill:#f1a888;"/><rect x="8.329" y="16.667" width="4.167" height="4.167" style="fill:#f1a888;"/><rect x="12.496" y="16.667" width="4.167" height="4.167" style="fill:#f1a888;"/><rect x="20.83" y="24.999" width="4.167" height="4.167" style="fill:#f1a888;"/><rect x="20.83" y="33.333" width="4.167" height="4.167" style="fill:#f1a888;"/><rect x="20.83" y="29.166" width="4.167" height="4.167" style="fill:#f1a888;"/><rect x="33.331" y="16.667" width="4.167" height="4.167" style="fill:#f1a888;"/><rect x="33.331" y="12.501" width="4.167" height="4.167" style="fill:#f1a888;"/><rect x="24.997" y="12.501" width="4.167" height="4.167" style="fill:#f1a888;"/><rect x="41.665" y="16.667" width="4.167" height="4.167" style="fill:#f1a888;"/><rect x="29.164" y="12.501" width="4.167" height="4.167" style="fill:#f1a888;"/><rect x="37.498" y="16.667" width="4.167" height="4.167" style="fill:#f1a888;"/><rect x="37.498" y="12.501" width="4.167" height="4.167" style="fill:#f1a888;"/><rect x="20.83" y="20.834" width="4.167" height="4.167" style="fill:#f1a888;"/><rect x="20.83" y="37.5" width="4.167" height="4.167" style="fill:#f1a888;"/><rect x="-0.005" y="8.334" width="4.167" height="4.167" style="fill:#f1a888;"/><rect x="4.162" y="12.501" width="4.167" height="4.167" style="fill:#f1a888;"/></g><rect x="58.333" y="16.667" width="4.167" height="4.167" style="fill:#5f3a29;"/><g><rect x="62.499" y="12.501" width="4.167" height="4.167" style="fill:#5590e8;"/><rect x="54.166" y="12.501" width="4.167" height="4.167" style="fill:#5590e8;"/></g></g></g></svg>