<?xml version="1.0" encoding="UTF-8" standalone="no"?><!DOCTYPE svg PUBLIC "-//W3C//DTD SVG 1.1//EN" "http://www.w3.org/Graphics/SVG/1.1/DTD/svg11.dtd"><svg width="100%" height="100%" viewBox="0 0 34 21" version="1.1" xmlns="http://www.w3.org/2000/svg" xmlns:xlink="http://www.w3.org/1999/xlink" xml:space="preserve" xmlns:serif="http://www.serif.com/" style="fill-rule:evenodd;clip-rule:evenodd;stroke-linejoin:round;stroke-miterlimit:2;"><rect id="snail" x="0" y="0" width="33.333" height="20.833" style="fill:none;"/><clipPath id="_clip1"><rect x="0" y="0" width="33.333" height="20.833"/></clipPath><g clip-path="url(#_clip1)"><rect x="8.335" y="4.159" width="4.167" height="4.167" style="fill:#8f7560;"/><rect x="16.669" y="4.154" width="4.167" height="4.167" style="fill:#624f3f;"/><rect x="12.5" y="8.34" width="4.167" height="4.167" style="fill:#624f3f;"/><rect x="16.673" y="12.507" width="4.167" height="4.167" style="fill:#624f3f;"/><rect x="12.5" y="16.674" width="4.167" height="4.167" style="fill:#624f3f;"/><rect x="20.838" y="4.167" width="4.167" height="4.167" style="fill:#8f7560;"/><rect x="-0" y="12.487" width="4.167" height="4.167" style="fill:#3688c2;"/><rect x="12.5" y="4.173" width="4.167" height="4.167" style="fill:#8f7560;"/><rect x="8.337" y="8.34" width="4.167" height="4.167" style="fill:#8f7560;"/><rect x="8.337" y="12.507" width="4.167" height="4.167" style="fill:#8f7560;"/><rect x="12.506" y="12.507" width="4.167" height="4.167" style="fill:#8f7560;"/><rect x="16.669" y="8.32" width="4.167" height="4.167" style="fill:#8f7560;"/><rect x="20.838" y="8.333" width="4.167" height="4.167" style="fill:#624f3f;"/><rect x="0.002" y="16.665" width="4.167" height="4.167" style="fill:#bb9271;"/><rect x="0.002" y="8.32" width="4.167" height="4.167" style="fill:#bb9271;"/><rect x="4.166" y="12.487" width="4.167" height="4.167" style="fill:#bb9271;"/><rect x="8.337" y="16.666" width="4.167" height="4.167" style="fill:#8f7560;"/><rect x="4.169" y="16.663" width="4.167" height="4.167" style="fill:#bb9271;"/><rect x="24.993" y="16.674" width="4.167" height="4.167" style="fill:#bb9271;"/><rect x="29.16" y="16.674" width="4.167" height="4.167" style="fill:#bb9271;"/><rect x="20.837" y="12.501" width="4.167" height="4.167" style="fill:#8f7560;"/><rect x="24.993" y="12.487" width="4.167" height="4.167" style="fill:#8f7560;"/><rect x="24.993" y="8.32" width="4.167" height="4.167" style="fill:#8f7560;"/><rect x="16.67" y="16.661" width="4.167" height="4.167" style="fill:#8f7560;"/><rect x="20.84" y="16.674" width="4.167" height="4.167" style="fill:#8f7560;"/><rect x="12.502" y="-0.008" width="4.167" height="4.167" style="fill:#8f7560;"/><rect x="16.668" y="-0.011" width="4.167" height="4.167" style="fill:#8f7560;"/></g></svg>