<?xml version="1.0" encoding="UTF-8" standalone="no"?>
<!DOCTYPE svg PUBLIC "-//W3C//DTD SVG 1.1//EN" "http://www.w3.org/Graphics/SVG/1.1/DTD/svg11.dtd">
<svg width="100%" height="100%" viewBox="0 0 20 11" version="1.1" xmlns="http://www.w3.org/2000/svg" xmlns:xlink="http://www.w3.org/1999/xlink" xml:space="preserve" xmlns:serif="http://www.serif.com/" style="fill-rule:evenodd;clip-rule:evenodd;stroke-linejoin:round;stroke-miterlimit:2;">
    <g transform="matrix(1,0,0,1,0,-125)">
        <g id="Doggie" transform="matrix(0.100121,0,0,0.0806225,-5.44575,119.179)">
            <rect x="54.392" y="72.202" width="199.758" height="136.438" style="fill:none;"/>
            <clipPath id="_clip1">
                <rect x="54.392" y="72.202" width="199.758" height="136.438"/>
            </clipPath>
            <g clip-path="url(#_clip1)">
                <g transform="matrix(1.17935,0,0,1.46457,-28.0445,-61.4266)">
                    <g transform="matrix(1,0,0,1,0.391509,0.202097)">
                        <g transform="matrix(1,0,0,1,8.46901,33.8761)">
                            <rect x="77.977" y="91.039" width="8.469" height="8.469" style="fill:rgb(141,79,52);"/>
                        </g>
                        <g transform="matrix(1,0,0,1,33.8761,50.8141)">
                            <rect x="77.977" y="91.039" width="8.469" height="8.469" style="fill:rgb(141,79,52);"/>
                        </g>
                        <g transform="matrix(1,0,0,1,59.2831,59.2831)">
                            <rect x="77.977" y="91.039" width="8.469" height="8.469" style="fill:rgb(141,79,52);"/>
                        </g>
                        <g transform="matrix(1,0,0,1,59.2831,67.7521)">
                            <rect x="77.977" y="91.039" width="8.469" height="8.469" style="fill:rgb(141,79,52);"/>
                        </g>
                        <g transform="matrix(1,0,0,1,84.6901,50.8141)">
                            <rect x="77.977" y="91.039" width="8.469" height="8.469" style="fill:rgb(141,79,52);"/>
                        </g>
                        <g transform="matrix(1,0,0,1,84.6901,59.2831)">
                            <rect x="77.977" y="91.039" width="8.469" height="8.469" style="fill:rgb(141,79,52);"/>
                        </g>
                        <g transform="matrix(1,0,0,1,84.6901,67.7521)">
                            <rect x="77.977" y="91.039" width="8.469" height="8.469" style="fill:rgb(141,79,52);"/>
                        </g>
                        <g transform="matrix(1,0,0,1,101.628,33.8761)">
                            <rect x="77.977" y="91.039" width="8.469" height="8.469" style="fill:rgb(141,79,52);"/>
                        </g>
                        <g transform="matrix(1,0,0,1,101.628,42.3451)">
                            <rect x="77.977" y="91.039" width="8.469" height="8.469" style="fill:rgb(141,79,52);"/>
                        </g>
                        <g transform="matrix(1,0,0,1,101.628,50.8141)">
                            <rect x="77.977" y="91.039" width="8.469" height="8.469" style="fill:rgb(141,79,52);"/>
                        </g>
                        <g transform="matrix(1,0,0,1,101.628,59.2831)">
                            <rect x="77.977" y="91.039" width="8.469" height="8.469" style="fill:rgb(141,79,52);"/>
                        </g>
                        <g transform="matrix(1,0,0,1,16.938,33.8761)">
                            <rect x="77.977" y="91.039" width="8.469" height="8.469" style="fill:rgb(141,79,52);"/>
                        </g>
                        <g transform="matrix(1,0,0,1,16.938,42.3451)">
                            <rect x="77.977" y="91.039" width="8.469" height="8.469" style="fill:rgb(141,79,52);"/>
                        </g>
                        <g transform="matrix(1,0,0,1,16.938,50.8141)">
                            <rect x="77.977" y="91.039" width="8.469" height="8.469" style="fill:rgb(141,79,52);"/>
                        </g>
                        <g transform="matrix(1,0,0,1,42.3451,59.2831)">
                            <rect x="77.977" y="91.039" width="8.469" height="8.469" style="fill:rgb(141,79,52);"/>
                        </g>
                        <g transform="matrix(1,0,0,1,67.7521,67.7521)">
                            <rect x="77.977" y="91.039" width="8.469" height="8.469" style="fill:rgb(141,79,52);"/>
                        </g>
                        <g transform="matrix(1,0,0,1,110.097,42.3451)">
                            <rect x="77.977" y="91.039" width="8.469" height="8.469" style="fill:rgb(141,79,52);"/>
                        </g>
                        <g transform="matrix(1,0,0,1,110.097,50.8141)">
                            <rect x="77.977" y="91.039" width="8.469" height="8.469" style="fill:rgb(141,79,52);"/>
                        </g>
                        <g transform="matrix(1,0,0,1,110.097,59.2831)">
                            <rect x="77.977" y="91.039" width="8.469" height="8.469" style="fill:rgb(141,79,52);"/>
                        </g>
                        <g transform="matrix(1,0,0,1,118.566,33.8761)">
                            <rect x="77.977" y="91.039" width="8.469" height="8.469" style="fill:rgb(141,79,52);"/>
                        </g>
                        <g transform="matrix(1,0,0,1,118.566,42.3451)">
                            <rect x="77.977" y="91.039" width="8.469" height="8.469" style="fill:rgb(141,79,52);"/>
                        </g>
                        <g transform="matrix(1,0,0,1,118.566,50.8141)">
                            <rect x="77.977" y="91.039" width="8.469" height="8.469" style="fill:rgb(141,79,52);"/>
                        </g>
                        <g transform="matrix(1,0,0,1,127.035,25.407)">
                            <rect x="77.977" y="91.039" width="8.469" height="8.469" style="fill:rgb(141,79,52);"/>
                        </g>
                        <g transform="matrix(1,0,0,1,127.035,33.8761)">
                            <rect x="77.977" y="91.039" width="8.469" height="8.469" style="fill:rgb(141,79,52);"/>
                        </g>
                        <g transform="matrix(1,0,0,1,135.504,25.407)">
                            <rect x="77.977" y="91.039" width="8.469" height="8.469" style="fill:rgb(141,79,52);"/>
                        </g>
                        <g transform="matrix(1,0,0,1,127.035,16.938)">
                            <rect x="77.977" y="91.039" width="8.469" height="8.469" style="fill:rgb(141,79,52);"/>
                        </g>
                        <g transform="matrix(1,0,0,1,127.035,8.46901)">
                            <rect x="77.977" y="91.039" width="8.469" height="8.469" style="fill:rgb(141,79,52);"/>
                        </g>
                        <g transform="matrix(1,0,0,1,135.504,33.8761)">
                            <rect x="77.977" y="91.039" width="8.469" height="8.469" style="fill:rgb(141,79,52);"/>
                        </g>
                        <g transform="matrix(1,0,0,1,143.973,25.407)">
                            <rect x="77.977" y="91.039" width="8.469" height="8.469" style="fill:rgb(141,79,52);"/>
                        </g>
                        <g transform="matrix(1,0,0,1,143.973,33.8761)">
                            <rect x="77.977" y="91.039" width="8.469" height="8.469" style="fill:rgb(141,79,52);"/>
                        </g>
                        <g transform="matrix(1,0,0,1,143.973,16.938)">
                            <rect x="77.977" y="91.039" width="8.469" height="8.469" style="fill:rgb(141,79,52);"/>
                        </g>
                        <g transform="matrix(1,0,0,1,25.407,33.8761)">
                            <rect x="77.977" y="91.039" width="8.469" height="8.469" style="fill:rgb(141,79,52);"/>
                        </g>
                        <g transform="matrix(1,0,0,1,25.407,42.3451)">
                            <rect x="77.977" y="91.039" width="8.469" height="8.469" style="fill:rgb(141,79,52);"/>
                        </g>
                        <g transform="matrix(1,0,0,1,25.407,50.8141)">
                            <rect x="77.977" y="91.039" width="8.469" height="8.469" style="fill:rgb(141,79,52);"/>
                        </g>
                        <g transform="matrix(1,0,0,1,50.8141,59.2831)">
                            <rect x="77.977" y="91.039" width="8.469" height="8.469" style="fill:rgb(141,79,52);"/>
                        </g>
                        <g transform="matrix(1,0,0,1,76.2211,67.7521)">
                            <rect x="77.977" y="91.039" width="8.469" height="8.469" style="fill:rgb(141,79,52);"/>
                        </g>
                        <g transform="matrix(1,0,0,1,93.1591,33.8761)">
                            <rect x="77.977" y="91.039" width="8.469" height="8.469" style="fill:rgb(141,79,52);"/>
                        </g>
                        <g transform="matrix(1,0,0,1,93.1591,42.3451)">
                            <rect x="77.977" y="91.039" width="8.469" height="8.469" style="fill:rgb(141,79,52);"/>
                        </g>
                        <g transform="matrix(1,0,0,1,93.1591,50.8141)">
                            <rect x="77.977" y="91.039" width="8.469" height="8.469" style="fill:rgb(141,79,52);"/>
                        </g>
                        <g transform="matrix(1,0,0,1,93.1591,59.2831)">
                            <rect x="77.977" y="91.039" width="8.469" height="8.469" style="fill:rgb(141,79,52);"/>
                        </g>
                        <g transform="matrix(1,0,0,1,101.628,25.407)">
                            <rect x="77.977" y="91.039" width="8.469" height="8.469" style="fill:rgb(141,79,52);"/>
                        </g>
                    </g>
                    <g transform="matrix(1,0,0,1,0.391509,0.202097)">
                        <g transform="matrix(1,0,0,1,33.8761,33.8761)">
                            <rect x="77.977" y="91.039" width="8.469" height="8.469" style="fill:rgb(54,22,7);"/>
                        </g>
                        <g transform="matrix(1,0,0,1,33.8761,42.3451)">
                            <rect x="77.977" y="91.039" width="8.469" height="8.469" style="fill:rgb(54,22,7);"/>
                        </g>
                        <g transform="matrix(1,0,0,1,59.2831,33.8761)">
                            <rect x="77.977" y="91.039" width="8.469" height="8.469" style="fill:rgb(54,22,7);"/>
                        </g>
                        <g transform="matrix(1,0,0,1,59.2831,42.3451)">
                            <rect x="77.977" y="91.039" width="8.469" height="8.469" style="fill:rgb(54,22,7);"/>
                        </g>
                        <g transform="matrix(1,0,0,1,59.2831,50.8141)">
                            <rect x="77.977" y="91.039" width="8.469" height="8.469" style="fill:rgb(54,22,7);"/>
                        </g>
                        <g transform="matrix(1,0,0,1,84.6901,33.8761)">
                            <rect x="77.977" y="91.039" width="8.469" height="8.469" style="fill:rgb(54,22,7);"/>
                        </g>
                        <g transform="matrix(1,0,0,1,84.6901,42.3451)">
                            <rect x="77.977" y="91.039" width="8.469" height="8.469" style="fill:rgb(54,22,7);"/>
                        </g>
                        <g transform="matrix(1,0,0,1,42.3451,33.8761)">
                            <rect x="77.977" y="91.039" width="8.469" height="8.469" style="fill:rgb(54,22,7);"/>
                        </g>
                        <g transform="matrix(1,0,0,1,42.3451,42.3451)">
                            <rect x="77.977" y="91.039" width="8.469" height="8.469" style="fill:rgb(54,22,7);"/>
                        </g>
                        <g transform="matrix(1,0,0,1,42.3451,50.8141)">
                            <rect x="77.977" y="91.039" width="8.469" height="8.469" style="fill:rgb(54,22,7);"/>
                        </g>
                        <g transform="matrix(1,0,0,1,67.7521,33.8761)">
                            <rect x="77.977" y="91.039" width="8.469" height="8.469" style="fill:rgb(54,22,7);"/>
                        </g>
                        <g transform="matrix(1,0,0,1,67.7521,42.3451)">
                            <rect x="77.977" y="91.039" width="8.469" height="8.469" style="fill:rgb(54,22,7);"/>
                        </g>
                        <g transform="matrix(1,0,0,1,67.7521,50.8141)">
                            <rect x="77.977" y="91.039" width="8.469" height="8.469" style="fill:rgb(54,22,7);"/>
                        </g>
                        <g transform="matrix(1,0,0,1,67.7521,59.2831)">
                            <rect x="77.977" y="91.039" width="8.469" height="8.469" style="fill:rgb(54,22,7);"/>
                        </g>
                        <g transform="matrix(1,0,0,1,50.8141,33.8761)">
                            <rect x="77.977" y="91.039" width="8.469" height="8.469" style="fill:rgb(54,22,7);"/>
                        </g>
                        <g transform="matrix(1,0,0,1,50.8141,42.3451)">
                            <rect x="77.977" y="91.039" width="8.469" height="8.469" style="fill:rgb(54,22,7);"/>
                        </g>
                        <g transform="matrix(1,0,0,1,50.8141,50.8141)">
                            <rect x="77.977" y="91.039" width="8.469" height="8.469" style="fill:rgb(54,22,7);"/>
                        </g>
                        <g transform="matrix(1,0,0,1,76.2211,33.8761)">
                            <rect x="77.977" y="91.039" width="8.469" height="8.469" style="fill:rgb(54,22,7);"/>
                        </g>
                        <g transform="matrix(1,0,0,1,76.2211,42.3451)">
                            <rect x="77.977" y="91.039" width="8.469" height="8.469" style="fill:rgb(54,22,7);"/>
                        </g>
                        <g transform="matrix(1,0,0,1,76.2211,50.8141)">
                            <rect x="77.977" y="91.039" width="8.469" height="8.469" style="fill:rgb(54,22,7);"/>
                        </g>
                        <g transform="matrix(1,0,0,1,76.2211,59.2831)">
                            <rect x="77.977" y="91.039" width="8.469" height="8.469" style="fill:rgb(54,22,7);"/>
                        </g>
                        <g transform="matrix(1,0,0,1,110.097,25.407)">
                            <rect x="77.977" y="91.039" width="8.469" height="8.469" style="fill:rgb(54,22,7);"/>
                        </g>
                        <g transform="matrix(1,0,0,1,110.097,33.8761)">
                            <rect x="77.977" y="91.039" width="8.469" height="8.469" style="fill:rgb(54,22,7);"/>
                        </g>
                        <g transform="matrix(1,0,0,1,118.566,25.407)">
                            <rect x="77.977" y="91.039" width="8.469" height="8.469" style="fill:rgb(54,22,7);"/>
                        </g>
                        <g transform="matrix(1,0,0,1,110.097,16.938)">
                            <rect x="77.977" y="91.039" width="8.469" height="8.469" style="fill:rgb(54,22,7);"/>
                        </g>
                        <g transform="matrix(1,0,0,1,118.566,16.938)">
                            <rect x="77.977" y="91.039" width="8.469" height="8.469" style="fill:rgb(54,22,7);"/>
                        </g>
                        <g transform="matrix(1,0,0,1,118.566,8.46901)">
                            <rect x="77.977" y="91.039" width="8.469" height="8.469" style="fill:rgb(54,22,7);"/>
                        </g>
                        <g transform="matrix(1,0,0,1,135.504,16.938)">
                            <rect x="77.977" y="91.039" width="8.469" height="8.469" style="fill:rgb(54,22,7);"/>
                        </g>
                        <g transform="matrix(1,0,0,1,152.442,25.407)">
                            <rect x="77.977" y="91.039" width="8.469" height="8.469" style="fill:rgb(54,22,7);"/>
                        </g>
                    </g>
                    <g transform="matrix(1,0,0,1,0.391509,0.202097)">
                        <g transform="matrix(1,0,0,1,33.8761,59.2831)">
                            <rect x="77.977" y="91.039" width="8.469" height="8.469" style="fill:rgb(166,118,97);"/>
                        </g>
                        <g transform="matrix(1,0,0,1,25.407,67.7521)">
                            <rect x="77.977" y="91.039" width="8.469" height="8.469" style="fill:rgb(166,118,97);"/>
                        </g>
                        <g transform="matrix(1,0,0,1,101.628,67.7521)">
                            <rect x="77.977" y="91.039" width="8.469" height="8.469" style="fill:rgb(166,118,97);"/>
                        </g>
                        <g transform="matrix(1,0,0,1,101.628,76.2211)">
                            <rect x="77.977" y="91.039" width="8.469" height="8.469" style="fill:rgb(166,118,97);"/>
                        </g>
                        <g transform="matrix(1,0,0,1,101.628,84.6901)">
                            <rect x="77.977" y="91.039" width="8.469" height="8.469" style="fill:rgb(166,118,97);"/>
                        </g>
                        <g transform="matrix(1,0,0,1,110.097,84.6901)">
                            <rect x="77.977" y="91.039" width="8.469" height="8.469" style="fill:rgb(166,118,97);"/>
                        </g>
                        <g transform="matrix(1,0,0,1,16.938,59.2831)">
                            <rect x="77.977" y="91.039" width="8.469" height="8.469" style="fill:rgb(166,118,97);"/>
                        </g>
                        <g transform="matrix(1,0,0,1,8.46901,67.7521)">
                            <rect x="77.977" y="91.039" width="8.469" height="8.469" style="fill:rgb(166,118,97);"/>
                        </g>
                        <g transform="matrix(1,0,0,1,8.46901,76.2211)">
                            <rect x="77.977" y="91.039" width="8.469" height="8.469" style="fill:rgb(166,118,97);"/>
                        </g>
                        <g transform="matrix(1,0,0,1,16.938,84.6901)">
                            <rect x="77.977" y="91.039" width="8.469" height="8.469" style="fill:rgb(166,118,97);"/>
                        </g>
                        <g transform="matrix(1,0,0,1,25.407,59.2831)">
                            <rect x="77.977" y="91.039" width="8.469" height="8.469" style="fill:rgb(166,118,97);"/>
                        </g>
                        <g transform="matrix(1,0,0,1,16.938,67.7521)">
                            <rect x="77.977" y="91.039" width="8.469" height="8.469" style="fill:rgb(166,118,97);"/>
                        </g>
                        <g transform="matrix(1,0,0,1,16.938,76.2211)">
                            <rect x="77.977" y="91.039" width="8.469" height="8.469" style="fill:rgb(166,118,97);"/>
                        </g>
                        <g transform="matrix(1,0,0,1,25.407,84.6901)">
                            <rect x="77.977" y="91.039" width="8.469" height="8.469" style="fill:rgb(166,118,97);"/>
                        </g>
                    </g>
                    <g transform="matrix(1,0,0,1,0.391509,0.202097)">
                        <g transform="matrix(1,0,0,1,25.407,76.2211)">
                            <rect x="77.977" y="91.039" width="8.469" height="8.469" style="fill:rgb(211,188,177);"/>
                        </g>
                        <g transform="matrix(1,0,0,1,33.8761,84.6901)">
                            <rect x="77.977" y="91.039" width="8.469" height="8.469" style="fill:rgb(211,188,177);"/>
                        </g>
                        <g transform="matrix(1,0,0,1,33.8761,67.7521)">
                            <rect x="77.977" y="91.039" width="8.469" height="8.469" style="fill:rgb(211,188,177);"/>
                        </g>
                        <rect x="77.977" y="91.039" width="8.469" height="8.469" style="fill:rgb(211,188,177);"/>
                        <g transform="matrix(1,0,0,1,-8.46901,8.46901)">
                            <rect x="77.977" y="91.039" width="8.469" height="8.469" style="fill:rgb(211,188,177);"/>
                        </g>
                        <g transform="matrix(1,0,0,1,-8.46901,16.938)">
                            <rect x="77.977" y="91.039" width="8.469" height="8.469" style="fill:rgb(211,188,177);"/>
                        </g>
                        <g transform="matrix(1,0,0,1,0,25.407)">
                            <rect x="77.977" y="91.039" width="8.469" height="8.469" style="fill:rgb(211,188,177);"/>
                        </g>
                        <g transform="matrix(1,0,0,1,93.1591,67.7521)">
                            <rect x="77.977" y="91.039" width="8.469" height="8.469" style="fill:rgb(211,188,177);"/>
                        </g>
                        <g transform="matrix(1,0,0,1,93.1591,76.2211)">
                            <rect x="77.977" y="91.039" width="8.469" height="8.469" style="fill:rgb(211,188,177);"/>
                        </g>
                        <g transform="matrix(1,0,0,1,93.1591,84.6901)">
                            <rect x="77.977" y="91.039" width="8.469" height="8.469" style="fill:rgb(211,188,177);"/>
                        </g>
                    </g>
                </g>
            </g>
        </g>
    </g>
</svg>
