<?xml version="1.0" encoding="UTF-8" standalone="no"?>
<!DOCTYPE svg PUBLIC "-//W3C//DTD SVG 1.1//EN" "http://www.w3.org/Graphics/SVG/1.1/DTD/svg11.dtd">
<svg width="100%" height="100%" viewBox="0 0 5 8" version="1.1" xmlns="http://www.w3.org/2000/svg" xmlns:xlink="http://www.w3.org/1999/xlink" xml:space="preserve" xmlns:serif="http://www.serif.com/" style="fill-rule:evenodd;clip-rule:evenodd;stroke-linejoin:round;stroke-miterlimit:2;">
    <g transform="matrix(1,0,0,1,0,-337)">
        <g transform="matrix(1,0,0,1,-1,-2)">
            <rect x="1" y="339" width="1" height="1" style="fill:rgb(71,132,99);"/>
        </g>
        <g transform="matrix(1,0,0,1,0,-2)">
            <rect x="1" y="339" width="1" height="1" style="fill:rgb(71,132,99);"/>
        </g>
        <g transform="matrix(1,0,0,1,1,-2)">
            <rect x="1" y="339" width="1" height="1" style="fill:rgb(71,132,99);"/>
        </g>
        <g transform="matrix(1,0,0,1,-3.01981e-14,-1)">
            <rect x="1" y="339" width="1" height="1" style="fill:rgb(71,132,99);"/>
        </g>
        <g transform="matrix(1,0,0,1,-1,-1)">
            <rect x="1" y="339" width="1" height="1" style="fill:rgb(71,132,99);"/>
        </g>
        <g transform="matrix(1,0,0,1,-1,0)">
            <rect x="1" y="339" width="1" height="1" style="fill:rgb(71,132,99);"/>
        </g>
        <g transform="matrix(1,0,0,1,-1,1)">
            <rect x="1" y="339" width="1" height="1" style="fill:rgb(71,132,99);"/>
        </g>
        <g transform="matrix(1,0,0,1,-1,2)">
            <rect x="1" y="339" width="1" height="1" style="fill:rgb(71,132,99);"/>
        </g>
        <g transform="matrix(1,0,0,1,-1,3)">
            <rect x="1" y="339" width="1" height="1" style="fill:rgb(71,132,99);"/>
        </g>
        <g transform="matrix(1,0,0,1,-3.01981e-14,3)">
            <rect x="1" y="339" width="1" height="1" style="fill:rgb(71,132,99);"/>
        </g>
        <g transform="matrix(1,0,0,1,1,3)">
            <rect x="1" y="339" width="1" height="1" style="fill:rgb(71,132,99);"/>
        </g>
        <g transform="matrix(1,0,0,1,-3.01981e-14,2)">
            <rect x="1" y="339" width="1" height="1" style="fill:rgb(71,132,99);"/>
        </g>
        <g transform="matrix(1,0,0,1,0,1)">
            <rect x="1" y="339" width="1" height="1" style="fill:rgb(71,132,99);"/>
        </g>
        <g transform="matrix(1,0,0,1,1,2)">
            <rect x="1" y="339" width="1" height="1" style="fill:rgb(71,132,99);"/>
        </g>
        <g transform="matrix(1,0,0,1,2,2)">
            <rect x="1" y="339" width="1" height="1" style="fill:rgb(71,132,99);"/>
        </g>
        <g transform="matrix(1,0,0,1,3,2)">
            <rect x="1" y="339" width="1" height="1" style="fill:rgb(71,132,99);"/>
        </g>
        <g transform="matrix(1,0,0,1,3,4)">
            <rect x="1" y="339" width="1" height="1" style="fill:rgb(71,132,99);"/>
        </g>
        <g transform="matrix(1,0,0,1,3,5)">
            <rect x="1" y="339" width="1" height="1" style="fill:rgb(71,132,99);"/>
        </g>
        <g transform="matrix(1,0,0,1,2,5)">
            <rect x="1" y="339" width="1" height="1" style="fill:rgb(71,132,99);"/>
        </g>
        <g transform="matrix(1,0,0,1,1,5)">
            <rect x="1" y="339" width="1" height="1" style="fill:rgb(71,132,99);"/>
        </g>
        <g transform="matrix(1,0,0,1,1,4)">
            <rect x="1" y="339" width="1" height="1" style="fill:rgb(71,132,99);"/>
        </g>
        <g transform="matrix(1,0,0,1,-1,4)">
            <rect x="1" y="339" width="1" height="1" style="fill:rgb(55,116,83);"/>
        </g>
        <g transform="matrix(1,0,0,1,4.44089e-16,5)">
            <rect x="1" y="339" width="1" height="1" style="fill:rgb(55,116,83);"/>
        </g>
        <g transform="matrix(1,0,0,1,-1,5)">
            <rect x="1" y="339" width="1" height="1" style="fill:rgb(55,116,83);"/>
        </g>
        <g transform="matrix(1,0,0,1,2,3)">
            <rect x="1" y="339" width="1" height="1" style="fill:rgb(55,116,83);"/>
        </g>
        <g transform="matrix(1,0,0,1,1,1)">
            <rect x="1" y="339" width="1" height="1" style="fill:rgb(55,116,83);"/>
        </g>
        <g transform="matrix(1,0,0,1,1,0)">
            <rect x="1" y="339" width="1" height="1" style="fill:rgb(55,116,83);"/>
        </g>
        <g transform="matrix(1,0,0,1,2,0)">
            <rect x="1" y="339" width="1" height="1" style="fill:rgb(55,116,83);"/>
        </g>
        <g transform="matrix(1,0,0,1,2,-1)">
            <rect x="1" y="339" width="1" height="1" style="fill:rgb(55,116,83);"/>
        </g>
        <g transform="matrix(1,0,0,1,2,-2)">
            <rect x="1" y="339" width="1" height="1" style="fill:rgb(55,116,83);"/>
        </g>
        <g transform="matrix(1,0,0,1,3,-2)">
            <rect x="1" y="339" width="1" height="1" style="fill:rgb(55,116,83);"/>
        </g>
        <g transform="matrix(1,0,0,1,1,-1)">
            <rect x="1" y="339" width="1" height="1" style="fill:rgb(86,151,116);"/>
        </g>
        <rect x="1" y="339" width="1" height="1" style="fill:rgb(86,151,116);"/>
        <g transform="matrix(1,0,0,1,3,3)">
            <rect x="1" y="339" width="1" height="1" style="fill:rgb(86,151,116);"/>
        </g>
        <g transform="matrix(1,0,0,1,2,4)">
            <rect x="1" y="339" width="1" height="1" style="fill:rgb(86,151,116);"/>
        </g>
        <g transform="matrix(1,0,0,1,4.44089e-16,4)">
            <rect x="1" y="339" width="1" height="1" style="fill:rgb(71,132,99);"/>
        </g>
        <g transform="matrix(1,0,0,1,3,1)">
            <rect x="1" y="339" width="1" height="1" style="fill:rgb(71,132,99);"/>
        </g>
        <g transform="matrix(1,0,0,1,2,1)">
            <rect x="1" y="339" width="1" height="1" style="fill:rgb(71,132,99);"/>
        </g>
        <g transform="matrix(1,0,0,1,3,0)">
            <rect x="1" y="339" width="1" height="1" style="fill:rgb(71,132,99);"/>
        </g>
        <g transform="matrix(1,0,0,1,3,-1)">
            <rect x="1" y="339" width="1" height="1" style="fill:rgb(71,132,99);"/>
        </g>
    </g>
</svg>
