<?xml version="1.0" encoding="UTF-8" standalone="no"?>
<!DOCTYPE svg PUBLIC "-//W3C//DTD SVG 1.1//EN" "http://www.w3.org/Graphics/SVG/1.1/DTD/svg11.dtd">
<svg width="100%" height="100%" viewBox="0 0 1 17" version="1.1" xmlns="http://www.w3.org/2000/svg" xmlns:xlink="http://www.w3.org/1999/xlink" xml:space="preserve" xmlns:serif="http://www.serif.com/" style="fill-rule:evenodd;clip-rule:evenodd;stroke-linejoin:round;stroke-miterlimit:2;">
    <g transform="matrix(1,0,0,1,-466,0)">
        <g id="Artboard1" transform="matrix(0.5,0,0,1.09091,233,33.8182)">
            <rect x="466" y="-31" width="2" height="44" style="fill:none;"/>
            <clipPath id="_clip1">
                <rect x="466" y="-31" width="2" height="44"/>
            </clipPath>
            <g clip-path="url(#_clip1)">
                <g transform="matrix(2,0,0,2.50944,191.335,-274.695)">
                    <g transform="matrix(0.118078,0,0,0.0431323,128.125,93.1849)">
                        <rect x="77.977" y="91.039" width="8.469" height="8.469" style="fill:rgb(31,114,186);"/>
                    </g>
                    <g transform="matrix(0.118078,0,0,0.0431323,128.125,94.646)">
                        <rect x="77.977" y="91.039" width="8.469" height="8.469" style="fill:rgb(31,114,186);"/>
                    </g>
                    <g transform="matrix(0.118078,0,0,0.0431323,128.125,93.5501)">
                        <rect x="77.977" y="91.039" width="8.469" height="8.469" style="fill:rgb(31,114,186);"/>
                    </g>
                    <g transform="matrix(0.118078,0,0,0.0431323,128.125,95.0113)">
                        <rect x="77.977" y="91.039" width="8.469" height="8.469" style="fill:rgb(31,114,186);"/>
                    </g>
                    <g transform="matrix(0.118078,0,0,0.0431323,128.125,93.9154)">
                        <rect x="77.977" y="91.039" width="8.469" height="8.469" style="fill:rgb(31,114,186);"/>
                    </g>
                    <g transform="matrix(0.118078,0,0,0.0431323,128.125,95.3766)">
                        <rect x="77.977" y="91.039" width="8.469" height="8.469" style="fill:rgb(31,114,186);"/>
                    </g>
                    <g transform="matrix(0.118078,0,0,0.0431323,128.125,94.2807)">
                        <rect x="77.977" y="91.039" width="8.469" height="8.469" style="fill:rgb(31,114,186);"/>
                    </g>
                    <g transform="matrix(0.118078,0,0,0.0431323,128.125,95.7419)">
                        <rect x="77.977" y="91.039" width="8.469" height="8.469" style="fill:rgb(31,114,186);"/>
                    </g>
                    <g transform="matrix(0.118078,0,0,0.0431323,128.125,99.0295)">
                        <rect x="77.977" y="91.039" width="8.469" height="8.469" style="fill:rgb(77,138,191);"/>
                    </g>
                    <g transform="matrix(0.118078,0,0,0.0431323,128.125,97.5683)">
                        <rect x="77.977" y="91.039" width="8.469" height="8.469" style="fill:rgb(77,138,191);"/>
                    </g>
                    <g transform="matrix(0.118078,0,0,0.0431323,128.125,99.3947)">
                        <rect x="77.977" y="91.039" width="8.469" height="8.469" style="fill:rgb(77,138,191);"/>
                    </g>
                    <g transform="matrix(0.118078,0,0,0.0431323,128.125,97.9336)">
                        <rect x="77.977" y="91.039" width="8.469" height="8.469" style="fill:rgb(77,138,191);"/>
                    </g>
                    <g transform="matrix(0.118078,0,0,0.0431323,128.125,98.2989)">
                        <rect x="77.977" y="91.039" width="8.469" height="8.469" style="fill:rgb(77,138,191);"/>
                    </g>
                    <g transform="matrix(0.118078,0,0,0.0431323,128.125,98.6642)">
                        <rect x="77.977" y="91.039" width="8.469" height="8.469" style="fill:rgb(77,138,191);"/>
                    </g>
                </g>
                <g transform="matrix(0.236155,0,0,0.108238,447.585,-33.5205)">
                    <rect x="77.977" y="91.039" width="8.469" height="8.469" style="fill:rgb(31,114,186);"/>
                </g>
                <g transform="matrix(0.236155,0,0,0.108238,447.585,-32.6038)">
                    <rect x="77.977" y="91.039" width="8.469" height="8.469" style="fill:rgb(31,114,186);"/>
                </g>
                <g transform="matrix(0.236155,0,0,0.108238,447.585,-31.6871)">
                    <rect x="77.977" y="91.039" width="8.469" height="8.469" style="fill:rgb(31,114,186);"/>
                </g>
                <g transform="matrix(0.236155,0,0,0.108238,447.585,-30.7705)">
                    <rect x="77.977" y="91.039" width="8.469" height="8.469" style="fill:rgb(31,114,186);"/>
                </g>
            </g>
        </g>
    </g>
</svg>
