<?xml version="1.0" encoding="UTF-8" standalone="no"?>
<!DOCTYPE svg PUBLIC "-//W3C//DTD SVG 1.1//EN" "http://www.w3.org/Graphics/SVG/1.1/DTD/svg11.dtd">
<svg width="100%" height="100%" viewBox="0 0 1 64" version="1.1" xmlns="http://www.w3.org/2000/svg" xmlns:xlink="http://www.w3.org/1999/xlink" xml:space="preserve" xmlns:serif="http://www.serif.com/" style="fill-rule:evenodd;clip-rule:evenodd;stroke-linejoin:round;stroke-miterlimit:2;">
    <g transform="matrix(1,0,0,1,-466,0)">
        <g id="sky" transform="matrix(0.5,0,0,1.45455,233,45.0909)">
            <rect x="466" y="-31" width="2" height="44" style="fill:none;"/>
            <clipPath id="_clip1">
                <rect x="466" y="-31" width="2" height="44"/>
            </clipPath>
            <g clip-path="url(#_clip1)">
                <g transform="matrix(1,0,0,0.867187,0,-4.11719)">
                    <g transform="matrix(0.236155,0,0,0.0936111,447.585,-24.4587)">
                        <rect x="77.977" y="91.039" width="8.469" height="8.469" style="fill:rgb(66,126,179);"/>
                    </g>
                    <g transform="matrix(0.236155,0,0,0.0936111,447.585,-22.0803)">
                        <rect x="77.977" y="91.039" width="8.469" height="8.469" style="fill:rgb(66,126,179);"/>
                    </g>
                    <g transform="matrix(0.236155,0,0,0.0936111,447.585,-21.288)">
                        <rect x="77.977" y="91.039" width="8.469" height="8.469" style="fill:rgb(66,126,179);"/>
                    </g>
                    <g transform="matrix(0.236155,0,0,0.0936111,447.585,-26.0443)">
                        <rect x="77.977" y="91.039" width="8.469" height="8.469" style="fill:rgb(66,126,179);"/>
                    </g>
                    <g transform="matrix(0.236155,0,0,0.0936111,447.585,-23.6659)">
                        <rect x="77.977" y="91.039" width="8.469" height="8.469" style="fill:rgb(66,126,179);"/>
                    </g>
                    <g transform="matrix(0.236155,0,0,0.0936111,447.585,-25.2515)">
                        <rect x="77.977" y="91.039" width="8.469" height="8.469" style="fill:rgb(66,126,179);"/>
                    </g>
                    <g transform="matrix(0.236155,0,0,0.0936111,447.585,-22.8731)">
                        <rect x="77.977" y="91.039" width="8.469" height="8.469" style="fill:rgb(66,126,179);"/>
                    </g>
                    <g transform="matrix(0.236155,0,0,0.0936111,447.585,-29.2154)">
                        <rect x="77.977" y="91.039" width="8.469" height="8.469" style="fill:rgb(66,126,179);"/>
                    </g>
                    <g transform="matrix(0.236155,0,0,0.0936111,447.585,-26.8371)">
                        <rect x="77.977" y="91.039" width="8.469" height="8.469" style="fill:rgb(66,126,179);"/>
                    </g>
                    <g transform="matrix(0.236155,0,0,0.0936111,447.585,-30.801)">
                        <rect x="77.977" y="91.039" width="8.469" height="8.469" style="fill:rgb(66,126,179);"/>
                    </g>
                    <g transform="matrix(0.236155,0,0,0.0936111,447.585,-28.4227)">
                        <rect x="77.977" y="91.039" width="8.469" height="8.469" style="fill:rgb(66,126,179);"/>
                    </g>
                    <g transform="matrix(0.236155,0,0,0.0936111,447.585,-30.0082)">
                        <rect x="77.977" y="91.039" width="8.469" height="8.469" style="fill:rgb(66,126,179);"/>
                    </g>
                    <g transform="matrix(0.236155,0,0,0.0936111,447.585,-27.6299)">
                        <rect x="77.977" y="91.039" width="8.469" height="8.469" style="fill:rgb(66,126,179);"/>
                    </g>
                    <g transform="matrix(0.236155,0,0,0.0936111,447.585,-34.766)">
                        <rect x="77.977" y="91.039" width="8.469" height="8.469" style="fill:rgb(66,126,179);"/>
                    </g>
                    <g transform="matrix(0.236155,0,0,0.0936111,447.585,-38.7299)">
                        <rect x="77.977" y="91.039" width="8.469" height="8.469" style="fill:rgb(66,126,179);"/>
                    </g>
                    <g transform="matrix(0.236155,0,0,0.0936111,447.585,-32.3876)">
                        <rect x="77.977" y="91.039" width="8.469" height="8.469" style="fill:rgb(66,126,179);"/>
                    </g>
                    <g transform="matrix(0.236155,0,0,0.0936111,447.585,-31.5953)">
                        <rect x="77.977" y="91.039" width="8.469" height="8.469" style="fill:rgb(66,126,179);"/>
                    </g>
                    <g transform="matrix(0.236155,0,0,0.0936111,447.585,-36.3516)">
                        <rect x="77.977" y="91.039" width="8.469" height="8.469" style="fill:rgb(66,126,179);"/>
                    </g>
                    <g transform="matrix(0.236155,0,0,0.0936111,447.585,-33.9732)">
                        <rect x="77.977" y="91.039" width="8.469" height="8.469" style="fill:rgb(66,126,179);"/>
                    </g>
                    <g transform="matrix(0.236155,0,0,0.0936111,447.585,-37.9371)">
                        <rect x="77.977" y="91.039" width="8.469" height="8.469" style="fill:rgb(66,126,179);"/>
                    </g>
                    <g transform="matrix(0.236155,0,0,0.0936111,447.585,-35.5588)">
                        <rect x="77.977" y="91.039" width="8.469" height="8.469" style="fill:rgb(66,126,179);"/>
                    </g>
                    <g transform="matrix(0.236155,0,0,0.0936111,447.585,-39.5227)">
                        <rect x="77.977" y="91.039" width="8.469" height="8.469" style="fill:rgb(66,126,179);"/>
                    </g>
                    <g transform="matrix(0.236155,0,0,0.0936111,447.585,-33.1804)">
                        <rect x="77.977" y="91.039" width="8.469" height="8.469" style="fill:rgb(66,126,179);"/>
                    </g>
                    <g transform="matrix(0.236155,0,0,0.0936111,447.585,-37.1444)">
                        <rect x="77.977" y="91.039" width="8.469" height="8.469" style="fill:rgb(66,126,179);"/>
                    </g>
                </g>
                <g transform="matrix(0.969695,0,0,0.375,14.1221,1.93835)">
                    <g transform="matrix(0.243535,0,0,0.216476,447.01,-30.5433)">
                        <rect x="77.977" y="91.039" width="8.469" height="8.469" style="fill:rgb(98,156,206);"/>
                    </g>
                    <g transform="matrix(0.243535,0,0,0.216476,447.01,-28.7099)">
                        <rect x="77.977" y="91.039" width="8.469" height="8.469" style="fill:rgb(98,156,206);"/>
                    </g>
                    <g transform="matrix(0.243535,0,0,0.216476,447.01,-26.8766)">
                        <rect x="77.977" y="91.039" width="8.469" height="8.469" style="fill:rgb(98,156,206);"/>
                    </g>
                    <g transform="matrix(0.243535,0,0,0.216476,447.01,-36.0421)">
                        <rect x="77.977" y="91.039" width="8.469" height="8.469" style="fill:rgb(76,140,196);"/>
                    </g>
                    <g transform="matrix(0.243535,0,0,0.216476,447.01,-47.041)">
                        <rect x="77.977" y="91.039" width="8.469" height="8.469" style="fill:rgb(66,126,179);"/>
                    </g>
                    <g transform="matrix(0.243535,0,0,0.216476,447.01,-41.541)">
                        <rect x="77.977" y="91.039" width="8.469" height="8.469" style="fill:rgb(66,126,179);"/>
                    </g>
                    <g transform="matrix(0.243535,0,0,0.216476,447.01,-50.7077)">
                        <rect x="77.977" y="91.039" width="8.469" height="8.469" style="fill:rgb(66,126,179);"/>
                    </g>
                    <g transform="matrix(0.243535,0,0,0.216476,447.01,-45.2077)">
                        <rect x="77.977" y="91.039" width="8.469" height="8.469" style="fill:rgb(66,126,179);"/>
                    </g>
                    <g transform="matrix(0.243535,0,0,0.216476,447.01,-17.7099)">
                        <rect x="77.977" y="91.039" width="8.469" height="8.469" style="fill:rgb(163,201,234);"/>
                    </g>
                    <g transform="matrix(0.243535,0,0,0.216476,447.01,-14.0432)">
                        <rect x="77.977" y="91.039" width="8.469" height="8.469" style="fill:rgb(163,201,234);"/>
                    </g>
                    <g transform="matrix(0.243535,0,0,0.216476,447.01,-25.0432)">
                        <rect x="77.977" y="91.039" width="8.469" height="8.469" style="fill:rgb(142,185,222);"/>
                    </g>
                    <g transform="matrix(0.243535,0,0,0.216476,447.01,-10.3766)">
                        <rect x="77.977" y="91.039" width="8.469" height="8.469" style="fill:rgb(186,215,239);"/>
                    </g>
                    <g transform="matrix(0.243535,0,0,0.216476,447.01,-3.04324)">
                        <rect x="77.977" y="91.039" width="8.469" height="8.469" style="fill:rgb(202,221,238);"/>
                    </g>
                    <g transform="matrix(0.243535,0,0,0.216476,447.01,4.2889)">
                        <rect x="77.977" y="91.039" width="8.469" height="8.469" style="fill:rgb(202,221,238);"/>
                    </g>
                    <g transform="matrix(0.243535,0,0,0.216476,447.01,7.95557)">
                        <rect x="77.977" y="91.039" width="8.469" height="8.469" style="fill:rgb(202,221,238);"/>
                    </g>
                    <g transform="matrix(0.243535,0,0,0.216476,447.01,0.622223)">
                        <rect x="77.977" y="91.039" width="8.469" height="8.469" style="fill:rgb(202,221,238);"/>
                    </g>
                    <g transform="matrix(0.243535,0,0,0.216476,447.01,-32.3766)">
                        <rect x="77.977" y="91.039" width="8.469" height="8.469" style="fill:rgb(98,156,206);"/>
                    </g>
                    <g transform="matrix(0.243535,0,0,0.216476,447.01,-37.8754)">
                        <rect x="77.977" y="91.039" width="8.469" height="8.469" style="fill:rgb(76,140,196);"/>
                    </g>
                    <g transform="matrix(0.243535,0,0,0.216476,447.01,-39.7099)">
                        <rect x="77.977" y="91.039" width="8.469" height="8.469" style="fill:rgb(76,140,196);"/>
                    </g>
                    <g transform="matrix(0.243535,0,0,0.216476,447.01,-34.2088)">
                        <rect x="77.977" y="91.039" width="8.469" height="8.469" style="fill:rgb(76,140,196);"/>
                    </g>
                    <g transform="matrix(0.243535,0,0,0.216476,447.01,-48.8743)">
                        <rect x="77.977" y="91.039" width="8.469" height="8.469" style="fill:rgb(66,126,179);"/>
                    </g>
                    <g transform="matrix(0.243535,0,0,0.216476,447.01,-43.3743)">
                        <rect x="77.977" y="91.039" width="8.469" height="8.469" style="fill:rgb(66,126,179);"/>
                    </g>
                    <g transform="matrix(0.243535,0,0,0.216476,447.01,-59.8766)">
                        <rect x="77.977" y="91.039" width="8.469" height="8.469" style="fill:rgb(66,126,179);"/>
                    </g>
                    <g transform="matrix(0.243535,0,0,0.216476,447.01,-54.3766)">
                        <rect x="77.977" y="91.039" width="8.469" height="8.469" style="fill:rgb(66,126,179);"/>
                    </g>
                    <g transform="matrix(0.243535,0,0,0.216476,447.01,-52.5444)">
                        <rect x="77.977" y="91.039" width="8.469" height="8.469" style="fill:rgb(66,126,179);"/>
                    </g>
                    <g transform="matrix(0.243535,0,0,0.216476,447.01,-63.5432)">
                        <rect x="77.977" y="91.039" width="8.469" height="8.469" style="fill:rgb(66,126,179);"/>
                    </g>
                    <g transform="matrix(0.243535,0,0,0.216476,447.01,-58.0432)">
                        <rect x="77.977" y="91.039" width="8.469" height="8.469" style="fill:rgb(66,126,179);"/>
                    </g>
                    <g transform="matrix(0.243535,0,0,0.216476,447.01,-61.7099)">
                        <rect x="77.977" y="91.039" width="8.469" height="8.469" style="fill:rgb(66,126,179);"/>
                    </g>
                    <g transform="matrix(0.243535,0,0,0.216476,447.01,-56.2099)">
                        <rect x="77.977" y="91.039" width="8.469" height="8.469" style="fill:rgb(66,126,179);"/>
                    </g>
                    <g transform="matrix(0.243535,0,0,0.216476,447.01,-15.8766)">
                        <rect x="77.977" y="91.039" width="8.469" height="8.469" style="fill:rgb(163,201,234);"/>
                    </g>
                    <g transform="matrix(0.243535,0,0,0.216476,447.01,-12.2099)">
                        <rect x="77.977" y="91.039" width="8.469" height="8.469" style="fill:rgb(163,201,234);"/>
                    </g>
                    <g transform="matrix(0.243535,0,0,0.216475,447.01,-23.2099)">
                        <rect x="77.977" y="91.039" width="8.469" height="8.469" style="fill:rgb(142,185,222);"/>
                    </g>
                    <g transform="matrix(0.243535,0,0,0.216475,447.01,-21.3777)">
                        <rect x="77.977" y="91.039" width="8.469" height="8.469" style="fill:rgb(142,185,222);"/>
                    </g>
                    <g transform="matrix(0.243535,0,0,0.216475,447.01,-19.5444)">
                        <rect x="77.977" y="91.039" width="8.469" height="8.469" style="fill:rgb(142,185,222);"/>
                    </g>
                    <g transform="matrix(0.243535,0,0,0.216476,447.01,-8.54324)">
                        <rect x="77.977" y="91.039" width="8.469" height="8.469" style="fill:rgb(186,215,239);"/>
                    </g>
                    <g transform="matrix(0.243535,0,0,0.216476,447.01,-6.71109)">
                        <rect x="77.977" y="91.039" width="8.469" height="8.469" style="fill:rgb(186,215,239);"/>
                    </g>
                    <g transform="matrix(0.243535,0,0,0.216476,447.01,-4.87776)">
                        <rect x="77.977" y="91.039" width="8.469" height="8.469" style="fill:rgb(186,215,239);"/>
                    </g>
                    <g transform="matrix(0.243535,0,0,0.216476,447.01,-1.20991)">
                        <rect x="77.977" y="91.039" width="8.469" height="8.469" style="fill:rgb(202,221,238);"/>
                    </g>
                    <g transform="matrix(0.243535,0,0,0.216476,447.01,6.12223)">
                        <rect x="77.977" y="91.039" width="8.469" height="8.469" style="fill:rgb(202,221,238);"/>
                    </g>
                    <g transform="matrix(0.243535,0,0,0.216476,447.01,2.45556)">
                        <rect x="77.977" y="91.039" width="8.469" height="8.469" style="fill:rgb(202,221,238);"/>
                    </g>
                </g>
            </g>
        </g>
    </g>
</svg>
