<?xml version="1.0" encoding="UTF-8" standalone="no"?><!DOCTYPE svg PUBLIC "-//W3C//DTD SVG 1.1//EN" "http://www.w3.org/Graphics/SVG/1.1/DTD/svg11.dtd"><svg width="100%" height="100%" viewBox="0 0 21 13" version="1.1" xmlns="http://www.w3.org/2000/svg" xmlns:xlink="http://www.w3.org/1999/xlink" xml:space="preserve" xmlns:serif="http://www.serif.com/" style="fill-rule:evenodd;clip-rule:evenodd;stroke-linejoin:round;stroke-miterlimit:2;"><rect id="fish" x="-0" y="0" width="20.833" height="12.5" style="fill:none;"/><clipPath id="_clip1"><rect x="-0" y="0" width="20.833" height="12.5"/></clipPath><g clip-path="url(#_clip1)"><rect x="0" y="0" width="4.167" height="4.167" style="fill:#84add6;"/><rect x="0" y="4.167" width="4.167" height="4.167"/><rect x="0" y="8.333" width="4.167" height="4.167" style="fill:#84add6;"/><rect x="4.167" y="0" width="4.167" height="4.167" style="fill:#659ed6;"/><rect x="4.167" y="4.167" width="4.167" height="4.167" style="fill:#659ed6;"/><rect x="4.167" y="8.333" width="4.167" height="4.167" style="fill:#659ed6;"/><rect x="8.333" y="0" width="4.167" height="4.167" style="fill:#3e8ad7;"/><rect x="8.333" y="4.167" width="4.167" height="4.167" style="fill:#3e8ad7;"/><rect x="16.667" y="8.333" width="4.167" height="4.167" style="fill:#1d66ae;"/><rect x="8.333" y="8.333" width="4.167" height="4.167" style="fill:#3e8ad7;"/><rect x="12.5" y="4.167" width="4.167" height="4.167" style="fill:#2779cb;"/><rect x="16.667" y="0" width="4.167" height="4.167" style="fill:#1d66ae;"/><rect x="16.667" y="4.167" width="4.167" height="4.167" style="fill:#1d66ae;"/></g></svg>