<?xml version="1.0" encoding="UTF-8" standalone="no"?><!DOCTYPE svg PUBLIC "-//W3C//DTD SVG 1.1//EN" "http://www.w3.org/Graphics/SVG/1.1/DTD/svg11.dtd"><svg width="100%" height="100%" viewBox="0 0 709 396" version="1.1" xmlns="http://www.w3.org/2000/svg" xmlns:xlink="http://www.w3.org/1999/xlink" xml:space="preserve" xmlns:serif="http://www.serif.com/" style="fill-rule:evenodd;clip-rule:evenodd;stroke-linejoin:round;stroke-miterlimit:2;"><rect id="Doggie" x="0" y="3.914" width="705.624" height="388.115" style="fill:none;"/><clipPath id="_clip1"><rect x="0" y="3.914" width="705.624" height="388.115"/></clipPath><g clip-path="url(#_clip1)"><g><g><rect x="70.575" y="145.064" width="35.288" height="35.288" style="fill:#8d4f34;"/><rect x="176.438" y="215.639" width="35.288" height="35.288" style="fill:#8d4f34;"/><rect x="282.3" y="250.927" width="35.288" height="35.288" style="fill:#8d4f34;"/><rect x="282.3" y="286.214" width="35.288" height="35.288" style="fill:#8d4f34;"/><rect x="388.163" y="215.639" width="35.288" height="35.288" style="fill:#8d4f34;"/><rect x="388.163" y="250.927" width="35.288" height="35.288" style="fill:#8d4f34;"/><rect x="388.163" y="286.214" width="35.288" height="35.288" style="fill:#8d4f34;"/><rect x="458.738" y="145.064" width="35.288" height="35.288" style="fill:#8d4f34;"/><rect x="458.738" y="180.352" width="35.288" height="35.288" style="fill:#8d4f34;"/><rect x="458.738" y="215.639" width="35.288" height="35.288" style="fill:#8d4f34;"/><rect x="458.738" y="250.927" width="35.288" height="35.288" style="fill:#8d4f34;"/><rect x="105.863" y="145.064" width="35.288" height="35.288" style="fill:#8d4f34;"/><rect x="105.863" y="180.352" width="35.288" height="35.288" style="fill:#8d4f34;"/><rect x="105.863" y="215.639" width="35.288" height="35.288" style="fill:#8d4f34;"/><rect x="211.725" y="250.927" width="35.288" height="35.288" style="fill:#8d4f34;"/><rect x="317.588" y="286.214" width="35.288" height="35.288" style="fill:#8d4f34;"/><rect x="494.026" y="180.352" width="35.288" height="35.288" style="fill:#8d4f34;"/><rect x="494.026" y="215.639" width="35.288" height="35.288" style="fill:#8d4f34;"/><rect x="494.026" y="250.927" width="35.288" height="35.288" style="fill:#8d4f34;"/><rect x="529.313" y="145.064" width="35.288" height="35.288" style="fill:#8d4f34;"/><rect x="529.313" y="180.352" width="35.288" height="35.288" style="fill:#8d4f34;"/><rect x="529.313" y="215.639" width="35.288" height="35.288" style="fill:#8d4f34;"/><rect x="564.601" y="109.776" width="35.288" height="35.288" style="fill:#8d4f34;"/><rect x="564.601" y="145.064" width="35.288" height="35.288" style="fill:#8d4f34;"/><rect x="599.888" y="109.776" width="35.288" height="35.288" style="fill:#8d4f34;"/><rect x="564.601" y="74.489" width="35.288" height="35.288" style="fill:#8d4f34;"/><rect x="564.601" y="39.201" width="35.288" height="35.288" style="fill:#8d4f34;"/><rect x="599.888" y="145.064" width="35.288" height="35.288" style="fill:#8d4f34;"/><rect x="635.176" y="109.776" width="35.288" height="35.288" style="fill:#8d4f34;"/><rect x="635.176" y="145.064" width="35.288" height="35.288" style="fill:#8d4f34;"/><rect x="635.176" y="74.489" width="35.288" height="35.288" style="fill:#8d4f34;"/><rect x="141.15" y="145.064" width="35.288" height="35.288" style="fill:#8d4f34;"/><rect x="141.15" y="180.352" width="35.288" height="35.288" style="fill:#8d4f34;"/><rect x="141.15" y="215.639" width="35.288" height="35.288" style="fill:#8d4f34;"/><rect x="247.013" y="250.927" width="35.288" height="35.288" style="fill:#8d4f34;"/><rect x="352.876" y="286.214" width="35.288" height="35.288" style="fill:#8d4f34;"/><rect x="423.451" y="145.064" width="35.288" height="35.288" style="fill:#8d4f34;"/><rect x="423.451" y="180.352" width="35.288" height="35.288" style="fill:#8d4f34;"/><rect x="423.451" y="215.639" width="35.288" height="35.288" style="fill:#8d4f34;"/><rect x="423.451" y="250.927" width="35.288" height="35.288" style="fill:#8d4f34;"/><rect x="458.738" y="109.776" width="35.288" height="35.288" style="fill:#8d4f34;"/></g><g><rect x="176.438" y="145.064" width="35.288" height="35.288" style="fill:#361607;"/><rect x="176.438" y="180.352" width="35.288" height="35.288" style="fill:#361607;"/><rect x="282.3" y="145.064" width="35.288" height="35.288" style="fill:#361607;"/><rect x="282.3" y="180.352" width="35.288" height="35.288" style="fill:#361607;"/><rect x="282.3" y="215.639" width="35.288" height="35.288" style="fill:#361607;"/><rect x="388.163" y="145.064" width="35.288" height="35.288" style="fill:#361607;"/><rect x="388.163" y="180.352" width="35.288" height="35.288" style="fill:#361607;"/><rect x="211.725" y="145.064" width="35.288" height="35.288" style="fill:#361607;"/><rect x="211.725" y="180.352" width="35.288" height="35.288" style="fill:#361607;"/><rect x="211.725" y="215.639" width="35.288" height="35.288" style="fill:#361607;"/><rect x="317.588" y="145.064" width="35.288" height="35.288" style="fill:#361607;"/><rect x="317.588" y="180.352" width="35.288" height="35.288" style="fill:#361607;"/><rect x="317.588" y="215.639" width="35.288" height="35.288" style="fill:#361607;"/><rect x="317.588" y="250.927" width="35.288" height="35.288" style="fill:#361607;"/><rect x="247.013" y="145.064" width="35.288" height="35.288" style="fill:#361607;"/><rect x="247.013" y="180.352" width="35.288" height="35.288" style="fill:#361607;"/><rect x="247.013" y="215.639" width="35.288" height="35.288" style="fill:#361607;"/><rect x="352.876" y="145.064" width="35.288" height="35.288" style="fill:#361607;"/><rect x="352.876" y="180.352" width="35.288" height="35.288" style="fill:#361607;"/><rect x="352.876" y="215.639" width="35.288" height="35.288" style="fill:#361607;"/><rect x="352.876" y="250.927" width="35.288" height="35.288" style="fill:#361607;"/><rect x="494.026" y="109.776" width="35.288" height="35.288" style="fill:#361607;"/><rect x="494.026" y="145.064" width="35.288" height="35.288" style="fill:#361607;"/><rect x="529.313" y="109.776" width="35.288" height="35.288" style="fill:#361607;"/><rect x="494.026" y="74.489" width="35.288" height="35.288" style="fill:#361607;"/><rect x="529.313" y="74.489" width="35.288" height="35.288" style="fill:#361607;"/><rect x="529.313" y="39.201" width="35.288" height="35.288" style="fill:#361607;"/><rect x="599.888" y="74.489" width="35.288" height="35.288" style="fill:#361607;"/><rect x="670.463" y="109.776" width="35.288" height="35.288" style="fill:#361607;"/></g><g><rect x="176.438" y="250.927" width="35.288" height="35.288" style="fill:#a67661;"/><rect x="141.15" y="286.214" width="35.288" height="35.288" style="fill:#a67661;"/><rect x="458.738" y="286.214" width="35.288" height="35.288" style="fill:#a67661;"/><rect x="458.738" y="321.502" width="35.288" height="35.288" style="fill:#a67661;"/><rect x="458.738" y="356.789" width="35.288" height="35.288" style="fill:#a67661;"/><rect x="494.026" y="356.789" width="35.288" height="35.288" style="fill:#a67661;"/><rect x="105.863" y="250.927" width="35.288" height="35.288" style="fill:#a67661;"/><rect x="70.575" y="286.214" width="35.288" height="35.288" style="fill:#a67661;"/><rect x="70.575" y="321.502" width="35.288" height="35.288" style="fill:#a67661;"/><rect x="105.863" y="356.789" width="35.288" height="35.288" style="fill:#a67661;"/><rect x="141.15" y="250.927" width="35.288" height="35.288" style="fill:#a67661;"/><rect x="105.863" y="286.214" width="35.288" height="35.288" style="fill:#a67661;"/><rect x="105.863" y="321.502" width="35.288" height="35.288" style="fill:#a67661;"/><rect x="141.15" y="356.789" width="35.288" height="35.288" style="fill:#a67661;"/></g><g><rect x="141.15" y="321.502" width="35.288" height="35.288" style="fill:#d3bcb1;"/><rect x="176.438" y="356.789" width="35.288" height="35.288" style="fill:#d3bcb1;"/><rect x="176.438" y="286.214" width="35.288" height="35.288" style="fill:#d3bcb1;"/><rect x="35.288" y="3.914" width="35.288" height="35.288" style="fill:#d3bcb1;"/><rect x="-0" y="39.201" width="35.288" height="35.288" style="fill:#d3bcb1;"/><rect x="-0" y="74.489" width="35.288" height="35.288" style="fill:#d3bcb1;"/><rect x="35.288" y="109.776" width="35.288" height="35.288" style="fill:#d3bcb1;"/><rect x="423.451" y="286.214" width="35.288" height="35.288" style="fill:#d3bcb1;"/><rect x="423.451" y="321.502" width="35.288" height="35.288" style="fill:#d3bcb1;"/><rect x="423.451" y="356.789" width="35.288" height="35.288" style="fill:#d3bcb1;"/></g></g></g></svg>