<?xml version="1.0" encoding="UTF-8" standalone="no"?><!DOCTYPE svg PUBLIC "-//W3C//DTD SVG 1.1//EN" "http://www.w3.org/Graphics/SVG/1.1/DTD/svg11.dtd"><svg width="100%" height="100%" viewBox="0 0 34 21" version="1.1" xmlns="http://www.w3.org/2000/svg" xmlns:xlink="http://www.w3.org/1999/xlink" xml:space="preserve" xmlns:serif="http://www.serif.com/" style="fill-rule:evenodd;clip-rule:evenodd;stroke-linejoin:round;stroke-miterlimit:2;"><rect id="snail" x="-0" y="0" width="33.334" height="20.833" style="fill:none;"/><clipPath id="_clip1"><rect x="-0" y="0" width="33.334" height="20.833"/></clipPath><g clip-path="url(#_clip1)"><rect x="0" y="16.667" width="4.167" height="4.167" style="fill:#bb9271;"/><rect x="4.167" y="16.667" width="4.167" height="4.167" style="fill:#bb9271;"/><rect x="4.167" y="12.5" width="4.167" height="4.167" style="fill:#8f7560;"/><rect x="4.167" y="8.333" width="4.167" height="4.167" style="fill:#8f7560;"/><rect x="8.333" y="16.667" width="4.167" height="4.167" style="fill:#8f7560;"/><rect x="8.333" y="12.5" width="4.167" height="4.167" style="fill:#8f7560;"/><rect x="8.333" y="8.333" width="4.167" height="4.167" style="fill:#624f3f;"/><rect x="8.336" y="4.167" width="4.167" height="4.167" style="fill:#8f7560;"/><rect x="12.501" y="16.667" width="4.167" height="4.167" style="fill:#8f7560;"/><rect x="12.501" y="12.5" width="4.167" height="4.167" style="fill:#624f3f;"/><rect x="12.501" y="8.333" width="4.167" height="4.167" style="fill:#8f7560;"/><rect x="12.503" y="4.167" width="4.167" height="4.167" style="fill:#624f3f;"/><rect x="12.504" y="-0" width="4.167" height="4.167" style="fill:#8f7560;"/><rect x="16.667" y="16.667" width="4.167" height="4.167" style="fill:#624f3f;"/><rect x="16.667" y="12.5" width="4.167" height="4.167" style="fill:#8f7560;"/><rect x="16.667" y="8.333" width="4.167" height="4.167" style="fill:#624f3f;"/><rect x="16.669" y="4.167" width="4.167" height="4.167" style="fill:#8f7560;"/><rect x="16.67" y="-0" width="4.167" height="4.167" style="fill:#8f7560;"/><rect x="20.833" y="16.667" width="4.167" height="4.167" style="fill:#8f7560;"/><rect x="20.833" y="12.5" width="4.167" height="4.167" style="fill:#8f7560;"/><rect x="20.833" y="8.333" width="4.167" height="4.167" style="fill:#8f7560;"/><rect x="20.836" y="4.167" width="4.167" height="4.167" style="fill:#8f7560;"/><rect x="25.002" y="16.667" width="4.167" height="4.167" style="fill:#bb9271;"/><rect x="25.002" y="12.5" width="4.167" height="4.167" style="fill:#bb9271;"/><rect x="29.166" y="16.667" width="4.167" height="4.167" style="fill:#bb9271;"/><rect x="29.166" y="12.5" width="4.167" height="4.167" style="fill:#3688c2;"/><rect x="29.166" y="8.333" width="4.167" height="4.167" style="fill:#bb9271;"/></g></svg>