<?xml version="1.0" encoding="UTF-8" standalone="no"?><!DOCTYPE svg PUBLIC "-//W3C//DTD SVG 1.1//EN" "http://www.w3.org/Graphics/SVG/1.1/DTD/svg11.dtd"><svg width="100%" height="100%" viewBox="0 0 25 13" version="1.1" xmlns="http://www.w3.org/2000/svg" xmlns:xlink="http://www.w3.org/1999/xlink" xml:space="preserve" xmlns:serif="http://www.serif.com/" style="fill-rule:evenodd;clip-rule:evenodd;stroke-linejoin:round;stroke-miterlimit:2;"><rect id="Artboard1" x="0" y="0" width="25" height="12.5" style="fill:none;"/><clipPath id="_clip1"><rect x="0" y="0" width="25" height="12.5"/></clipPath><g clip-path="url(#_clip1)"><g><g><rect x="20.834" y="4.164" width="4.166" height="4.166" style="fill:#498335;"/><rect x="16.668" y="8.333" width="4.166" height="4.166" style="fill:#498335;"/><rect x="4.17" y="8.333" width="4.166" height="4.166" style="fill:#498335;"/></g><g><rect x="8.336" y="4.164" width="4.166" height="4.166" style="fill:#4cff35;"/><rect x="16.668" y="4.164" width="4.166" height="4.166" style="fill:#4cff35;"/><rect x="4.17" y="-0.001" width="4.166" height="4.166" style="fill:#4cff35;"/><rect x="12.502" y="-0.001" width="4.166" height="4.166" style="fill:#4cff35;"/><rect x="0.004" y="4.164" width="4.166" height="4.166" style="fill:#4cff35;"/></g><g><rect x="8.336" y="-0.001" width="4.166" height="4.166"/><rect x="16.668" y="-0.001" width="4.166" height="4.166"/><rect x="4.17" y="4.164" width="4.166" height="4.166"/><rect x="12.502" y="4.164" width="4.166" height="4.166"/><rect x="20.835" y="4.164" width="2.082" height="2.082"/><rect x="22.917" y="7.291" width="2.083" height="1.041"/></g></g></g></svg>